PathFileType        4      (X/Y/Z)      C:\Users\u0101727\OneDrive - KU Leuven\reference_data\TRC\gait_65.trc         																																																																																																																																																																																		
DataRate	CameraRate	NumFrames	NumMarkers	Units	OrigDataRate	OrigDataStartFrame	OrigNumFrames																																																																																																																																																																											
100	100	4	59	m	100	168	446																																																																																																																																																																											
Frame#	Time	LASI			RASI			LKNE			LTHI1			LTHI2			LTHI3			LANK			LANK_med			LTIB1			LTIB2			foot_l6			foot_l7			foot_l9			RKNE			RTHI3			RANK			RTIB1			RTIB2			RTIB3			Foot_r3			Foot_r5			Foot_r6			Foot_r7			Foot_r9			RSHO			LSHO			CLAV			hum_l2			rad_l2			LW1			LW2			LH			hum_r2			RELB			rad_r2			RW2			RW1			RH			Foot_r4			LKNE_med			foot_l3			LTIB3			foot_l5			foot_l10			RTHI2			RTHI1			foot_l8			RANK_med			foot_l1			Foot_r1			Foot_r8			foot_l2			RPSI			LPSI			foot_l4			Foot_r2			RKNE_med			LELB			Foot_r10		
		X1	Y1	Z1	X2	Y2	Z2	X3	Y3	Z3	X4	Y4	Z4	X5	Y5	Z5	X6	Y6	Z6	X7	Y7	Z7	X8	Y8	Z8	X9	Y9	Z9	X10	Y10	Z10	X11	Y11	Z11	X12	Y12	Z12	X13	Y13	Z13	X14	Y14	Z14	X15	Y15	Z15	X16	Y16	Z16	X17	Y17	Z17	X18	Y18	Z18	X19	Y19	Z19	X20	Y20	Z20	X21	Y21	Z21	X22	Y22	Z22	X23	Y23	Z23	X24	Y24	Z24	X25	Y25	Z25	X26	Y26	Z26	X27	Y27	Z27	X28	Y28	Z28	X29	Y29	Z29	X30	Y30	Z30	X31	Y31	Z31	X32	Y32	Z32	X33	Y33	Z33	X34	Y34	Z34	X35	Y35	Z35	X36	Y36	Z36	X37	Y37	Z37	X38	Y38	Z38	X39	Y39	Z39	X40	Y40	Z40	X41	Y41	Z41	X42	Y42	Z42	X43	Y43	Z43	X44	Y44	Z44	X45	Y45	Z45	X46	Y46	Z46	X47	Y47	Z47	X48	Y48	Z48	X49	Y49	Z49	X50	Y50	Z50	X51	Y51	Z51	X52	Y52	Z52	X53	Y53	Z53	X54	Y54	Z54	X55	Y55	Z55	X56	Y56	Z56	X57	Y57	Z57	X58	Y58	Z58	X59	Y59	Z59
168	1.68	-0.075182	0.90364	-0.38067	-0.073693	0.89627	-0.12153	0.056824	0.467	-0.35648	0.034038	0.69057	-0.37316	-0.0076412	0.66756	-0.42477	0.034938	0.63386	-0.39601	0.078072	0.072457	-0.34244	0.069965	0.087137	-0.25692	0.08869	0.27504	-0.34935	0.029048	0.26376	-0.37757	0.21521	0.046191	-0.29859	0.24525	0.048122	-0.26062	0.14874	0.052087	-0.2517	-0.28939	0.42642	-0.1315	-0.18049	0.66334	-0.06501	-0.57728	0.15027	-0.17169	-0.41279	0.29283	-0.13088	-0.47321	0.33289	-0.12673	-0.46649	0.27757	-0.13179	-0.58257	0.12212	-0.18011	-0.52809	0.031224	-0.16195	-0.49006	0.033794	-0.20523	-0.46286	0.030666	-0.24736	-0.51166	0.076712	-0.24809	-0.14743	1.3438	-0.06421	-0.17272	1.3495	-0.41825	-0.080262	1.3286	-0.2627	-0.21482	1.1956	-0.46891	-0.24129	0.93216	-0.51349	-0.22219	0.79756	-0.50232	-0.27994	0.81902	-0.53756	-0.2589	0.74866	-0.54428	-0.15776	1.1917	-0.026634	-0.16535	1.0402	-5.16E-04	-0.054903	0.9297	0.024692	-0.024138	0.85084	0.040689	0.022542	0.87533	-0.0032428	0.037853	0.83065	0.038366	-0.57218	0.083616	-0.17566	0.038417	0.46011	-0.2626	0.08666	0.043027	-0.33279	0.069698	0.2228	-0.36167	0.19699	0.035185	-0.34057	0.07614	0.053389	-0.26157	-0.20239	0.71306	-0.043855	-0.14127	0.70564	-0.06801	0.21157	0.047766	-0.25051	-0.54672	0.16058	-0.25009	0.019131	0.051043	-0.30469	-0.60891	0.179	-0.2092	-0.49248	0.031968	-0.26191	0.01822	0.018565	-0.30676	-0.24684	0.92498	-0.23314	-0.2478	0.93163	-0.28031	0.1221	0.031604	-0.33724	-0.63591	0.15624	-0.20963	-0.32254	0.42994	-0.24526	-0.26864	1.0363	-0.46886	-0.55996	0.12886	-0.25044
169	1.69	-0.05945	0.90545	-0.38146	-0.058121	0.8958	-0.12263	0.071812	0.47013	-0.35568	0.047633	0.69144	-0.37169	0.0074466	0.66941	-0.42466	0.049	0.63498	-0.39532	0.081404	0.071918	-0.3432	0.073796	0.08756	-0.25789	0.098771	0.2747	-0.34863	0.040803	0.26622	-0.38107	0.21751	0.040535	-0.29982	0.24773	0.041684	-0.2621	0.15135	0.049217	-0.25275	-0.26754	0.42325	-0.12987	-0.16176	0.66168	-0.066673	-0.56525	0.15694	-0.17021	-0.39606	0.29378	-0.12898	-0.45489	0.33619	-0.12605	-0.45017	0.28062	-0.13028	-0.57223	0.12944	-0.17835	-0.52664	0.032982	-0.16193	-0.48926	0.033816	-0.20516	-0.46255	0.031041	-0.24676	-0.50509	0.07826	-0.24647	-0.13295	1.3447	-0.065453	-0.15776	1.3499	-0.41934	-0.065487	1.3297	-0.26392	-0.19885	1.1958	-0.46992	-0.2248	0.9323	-0.51388	-0.20574	0.79758	-0.50236	-0.26338	0.81913	-0.53776	-0.2423	0.74857	-0.54433	-0.14518	1.1925	-0.028148	-0.15318	1.0411	-0.002272	-0.043881	0.9297	0.02418	-0.014074	0.85044	0.040427	0.033426	0.87488	-0.0028134	0.047836	0.83012	0.039009	-0.56506	0.089871	-0.17401	0.052367	0.46246	-0.26407	0.088644	0.042007	-0.33355	0.078299	0.2237	-0.36247	0.19856	0.029997	-0.34174	0.078813	0.053207	-0.26185	-0.18393	0.71047	-0.045009	-0.12269	0.70441	-0.069462	0.21422	0.042858	-0.25188	-0.53235	0.16497	-0.24772	0.02166	0.052722	-0.30528	-0.59401	0.1881	-0.20808	-0.4912	0.032845	-0.26122	0.019353	0.020039	-0.3068	-0.23126	0.92553	-0.23272	-0.23215	0.93276	-0.27982	0.12353	0.029069	-0.33811	-0.62216	0.16724	-0.20917	-0.29961	0.42622	-0.2433	-0.2523	1.0366	-0.46961	-0.54751	0.13425	-0.24781
170	1.7	-0.043846	0.90781	-0.3822	-0.042936	0.89537	-0.12376	0.085874	0.47086	-0.35587	0.060498	0.69413	-0.36975	0.022865	0.67271	-0.42475	0.064425	0.63856	-0.39501	0.08572	0.070139	-0.34352	0.076916	0.087561	-0.25869	0.10884	0.27373	-0.34859	0.051796	0.26726	-0.38219	0.21965	0.035519	-0.30024	0.24952	0.035057	-0.2625	0.15323	0.046521	-0.25318	-0.24436	0.41972	-0.12798	-0.14274	0.6596	-0.067979	-0.55156	0.16373	-0.16802	-0.37755	0.29489	-0.12647	-0.43476	0.33932	-0.12534	-0.43215	0.28363	-0.12848	-0.56058	0.13712	-0.1768	-0.52449	0.036055	-0.16232	-0.4877	0.033821	-0.20477	-0.46124	0.031747	-0.24576	-0.49756	0.080927	-0.245	-0.11834	1.3459	-0.066558	-0.14312	1.3508	-0.42032	-0.05071	1.3308	-0.26501	-0.18316	1.1963	-0.47067	-0.2078	0.93258	-0.51417	-0.18872	0.79791	-0.50222	-0.24616	0.81916	-0.53803	-0.22481	0.749	-0.54443	-0.13301	1.194	-0.029947	-0.14107	1.0425	-0.00391	-0.03312	0.92987	0.023472	-0.0043363	0.85035	0.040354	0.043742	0.87425	-0.0023534	0.057143	0.82957	0.039732	-0.55724	0.096712	-0.1729	0.066416	0.46451	-0.26548	0.09043	0.040704	-0.33412	0.086754	0.22372	-0.36342	0.20043	0.025613	-0.34389	0.080837	0.052526	-0.26279	-0.16539	0.7082	-0.046112	-0.10446	0.70299	-0.071536	0.21604	0.037824	-0.25195	-0.51664	0.16935	-0.24519	0.023991	0.054076	-0.30609	-0.57718	0.19766	-0.20701	-0.48861	0.035346	-0.26033	0.020655	0.021385	-0.30746	-0.21583	0.92587	-0.23175	-0.21693	0.93351	-0.27921	0.12492	0.026622	-0.3386	-0.60657	0.17891	-0.20857	-0.27586	0.42175	-0.24214	-0.23615	1.0373	-0.47054	-0.53409	0.14033	-0.24574
171	1.71	-0.02935	0.90977	-0.38224	-0.027941	0.89514	-0.12472	0.098991	0.46992	-0.35666	0.073629	0.69836	-0.36817	0.038194	0.67652	-0.42437	0.080416	0.64339	-0.39407	0.087733	0.069789	-0.34328	0.078664	0.086893	-0.25831	0.11744	0.272	-0.34784	0.061303	0.26731	-0.38366	0.22165	0.033801	-0.29975	0.25034	0.031649	-0.26077	0.15406	0.044521	-0.25247	-0.21993	0.4162	-0.1265	-0.12353	0.65762	-0.069107	-0.53609	0.17073	-0.16583	-0.35778	0.2957	-0.12421	-0.41327	0.34243	-0.12471	-0.41267	0.28653	-0.12685	-0.5474	0.14546	-0.17473	-0.51976	0.040769	-0.16259	-0.48402	0.035511	-0.20465	-0.45727	0.03293	-0.2447	-0.48848	0.085253	-0.24353	-0.10356	1.3473	-0.067514	-0.12854	1.3518	-0.42108	-0.036005	1.3317	-0.26591	-0.16765	1.1972	-0.47125	-0.19048	0.93343	-0.51463	-0.17069	0.79905	-0.50252	-0.22833	0.81968	-0.53841	-0.2067	0.74924	-0.54457	-0.12007	1.1954	-0.031398	-0.12907	1.044	-0.0057874	-0.023114	0.93023	0.02268	0.004847	0.85027	0.04012	0.053649	0.87372	-0.0020829	0.066002	0.82872	0.040343	-0.54752	0.10481	-0.17145	0.079871	0.46563	-0.2666	0.091499	0.04039	-0.33383	0.094838	0.2225	-0.36348	0.20122	0.024132	-0.34545	0.082168	0.052296	-0.26222	-0.14777	0.70534	-0.047416	-0.085789	0.70134	-0.073212	0.21692	0.035247	-0.25094	-0.50042	0.17435	-0.24269	0.025316	0.054675	-0.30604	-0.55906	0.20729	-0.20439	-0.4841	0.039433	-0.25946	0.021432	0.021816	-0.30735	-0.20081	0.92678	-0.23113	-0.20187	0.93434	-0.27865	0.1256	0.026114	-0.33826	-0.58982	0.19084	-0.20635	-0.24979	0.41603	-0.24129	-0.21944	1.0375	-0.47058	-0.52007	0.14723	-0.2437
